<svg width="24" height="24" viewBox="0 0 24 24" fill="none" xmlns="http://www.w3.org/2000/svg">
<path d="M24 12C24 18.6274 18.6274 24 12 24C5.37258 24 0 18.6274 0 12C0 5.37258 5.37258 0 12 0C18.6274 0 24 5.37258 24 12Z" fill="url(#paint0_linear_5_147)"/>
<path d="M12.4626 6.42027C12.6405 6.2667 12.8839 6.22277 13.1927 6.2884L14.4206 6.54942C14.7295 6.61507 14.934 6.75418 15.034 6.96685C15.1341 7.17955 15.1431 7.47933 15.0609 7.86599L13.4568 15.4122L16.3333 12.6999C16.4109 12.6185 16.4808 12.5673 16.5429 12.5461C16.6179 12.5134 16.7345 12.5012 16.8928 12.5095L18.5914 12.5985C18.6766 12.603 18.7363 12.6305 18.7702 12.6812C18.8164 12.7324 18.8376 12.7945 18.8338 12.8676C18.8287 12.965 18.7877 13.0484 18.7108 13.1176L14.8827 16.6166L18.4327 20.8685C18.5019 20.9454 18.5343 21.0264 18.5298 21.1116C18.526 21.1847 18.4982 21.2504 18.4463 21.3088C18.395 21.3549 18.3268 21.3758 18.2415 21.3713L16.4882 21.2794C16.3542 21.2724 16.2574 21.2551 16.1978 21.2276C16.1382 21.2 16.0741 21.1417 16.0055 21.0527L13.0484 17.3338L11.6326 23.9942C10.5945 23.963 9.58956 23.8 8.63388 23.5213L10.0558 16.8313L4.78655 15.9375L9.20946 16.0044L9.40954 15.6529L5.60378 15.0408L9.01184 14.7567L9.51081 14.6778L9.47134 14.4282L9.37932 14.251L6.43384 13.8222L4.73289 13.5801L8.18055 13.5456L10.7626 13.5063L12.0956 7.23564C12.1778 6.84899 12.3001 6.57716 12.4626 6.42027Z" fill="#1088DF"/>
<path d="M14.0842 6.44211L14.4316 6.53684L14.7158 6.63158L14.9684 6.82105L15.0947 6.94737L23.816 14.1044C22.8211 19.7284 17.9095 24 12 24C11.8954 24 11.791 23.9986 11.687 23.9959L4.70452 15.9158H9.15789L9.28421 15.6632L5.62105 15.0316L9.41053 14.6526V14.4632L9.28421 14.2105L4.73684 13.5789L10.8632 13.3895L12.6316 6.56842L13.0105 6.18947L14.0842 6.44211Z" fill="url(#paint1_linear_5_147)" fill-opacity="0.1"/>
<path d="M17.5579 13.1368L22.9179 16.9863C21.0248 21.1246 16.8483 24 12 24C11.8716 24 11.7437 23.9977 11.6162 23.9937L12.3789 20.2737L13.0737 17.1789L13.4526 15.3474L16.4842 12.4421L17.5579 13.1368Z" fill="black" fill-opacity="0.05"/>
<defs>
<linearGradient id="paint0_linear_5_147" x1="3.33637" y1="2.88274e-07" x2="20.6636" y2="24" gradientUnits="userSpaceOnUse">
<stop stop-color="#F8E730"/>
<stop offset="0.8" stop-color="#EEBF26"/>
<stop offset="1" stop-color="#DFAC2D"/>
</linearGradient>
<linearGradient id="paint1_linear_5_147" x1="13.8208" y1="0" x2="13.8208" y2="29.7021" gradientUnits="userSpaceOnUse">
<stop stop-color="#E9820B"/>
<stop offset="1" stop-color="#613605"/>
</linearGradient>
</defs>
</svg>
